Coordinates
version=1
nRows=10
nColumns=46
inDegrees=yes

Units are S.I. units (second, meters, Newtons, ...)
Angles are in degrees.

endheader
time	pelvis_tilt	pelvis_list	pelvis_rotation	pelvis_tx	pelvis_ty	pelvis_tz	bb_angle	bb_tx	bb_ty	bb_tz	hip_flexion_r	hip_adduction_r	hip_rotation_r	knee_angle_r	knee_angle_r_beta	ankle_angle_r	subtalar_angle_r	mtp_angle_r	crank_angle_r	hip_flexion_l	hip_adduction_l	hip_rotation_l	knee_angle_l	knee_angle_l_beta	ankle_angle_l	subtalar_angle_l	mtp_angle_l	crank_angle_l	lumbar_extension	lumbar_bending	lumbar_rotation	arm_flex_r	arm_add_r	arm_rot_r	elbow_flex_r	pro_sup_r	wrist_flex_r	wrist_dev_r	arm_flex_l	arm_add_l	arm_rot_l	elbow_flex_l	pro_sup_l	wrist_flex_l	wrist_dev_l
      0.00500000	    -23.27715899	      4.58929004	      3.61609107	      0.11486537	      1.06518620	     -0.25811463	      0.00000000	      0.50000000	      0.00000000	      0.25000000	     47.79427972	    -10.88046837	     -3.40408258	     48.38108146	      0.84440917	     16.08207124	     -4.66841559	      0.00000000	      0.00000000	     98.39894456	      0.00472719	     -2.15510904	    103.58002141	      1.80781241	     22.85797252	     -8.82392429	      0.00000000	      0.00000000	    -46.68799266	     -3.09278583	     -6.21840805	     89.64007951	     -4.43086579	     34.86821717	     25.47658279	     26.96112892	      0.00000000	      0.00000000	     89.73912867	     -3.78075533	     39.86203041	     30.80025433	     26.51581125	      0.00000000	      0.00000000
      0.01000000	    -23.25705083	      4.63643598	      3.58999702	      0.11490366	      1.06524676	     -0.25805385	      0.00000000	      0.50000000	      0.00000000	      0.25000000	     47.78460650	    -10.89544048	     -3.33286927	     48.38793747	      0.84452883	     16.14420653	     -4.60015913	      0.00000000	      0.00000000	     98.36267026	     -0.03776932	     -2.20739830	    103.58779633	      1.80794811	     22.86850381	     -8.78782883	      0.00000000	      0.00000000	    -46.70494830	     -3.15058640	     -6.20015509	     89.64108289	     -4.52415916	     35.09942806	     25.40076277	     27.69930781	      0.00000000	      0.00000000	     89.74117110	     -3.70113924	     39.84822369	     30.59552517	     26.96624146	      0.00000000	      0.00000000
      0.01500000	    -23.28298742	      4.58989748	      3.59354789	      0.11492499	      1.06516255	     -0.25808421	      0.00000000	      0.50000000	      0.00000000	      0.25000000	     47.81136557	    -10.86107816	     -3.37371810	     48.39038758	      0.84457159	     16.13154119	     -4.59291260	      0.00000000	      0.00000000	     98.40899217	     -0.04001190	     -2.16400053	    103.60790377	      1.80829905	     22.85364441	     -8.81017800	      0.00000000	      0.00000000	    -46.65202720	     -3.13020372	     -6.16190693	     89.64375850	     -4.71844924	     35.76501696	     25.19343252	     28.95937251	      0.00000000	      0.00000000	     89.74279353	     -3.69900034	     40.01502426	     30.42028214	     27.63082543	      0.00000000	      0.00000000
      0.02000000	    -23.18427266	      4.60474776	      3.62554192	      0.11504906	      1.06545686	     -0.25801333	      0.00000000	      0.50000000	      0.00000000	      0.25000000	     47.68265877	    -10.89777350	     -3.43790628	     48.37138675	      0.84423996	     16.08058343	     -4.62589170	      0.00000000	      0.00000000	     98.27876625	     -0.04056564	     -2.17491329	    103.56144509	      1.80748820	     22.85408822	     -8.72011020	      0.00000000	      0.00000000	    -46.77913938	     -3.12637904	     -6.27737333	     89.64802999	     -4.72193230	     36.29071026	     25.14224869	     29.05705529	      0.00000000	      0.00000000	     89.74690907	     -3.85547624	     37.88934073	     31.08586702	     26.97538087	      0.00000000	      0.00000000
      0.02500000	    -23.10950230	      4.61565291	      3.64344133	      0.11503266	      1.06545272	     -0.25808311	      0.00000000	      0.50000000	      0.00000000	      0.25000000	     47.62349678	    -10.94150128	     -3.48827813	     48.42691831	      0.84520917	     16.10758203	     -4.62343556	      0.00000000	      0.00000000	     98.23727697	     -0.00187762	     -2.18585138	    103.55901984	      1.80744587	     22.75323254	     -8.84631348	      0.00000000	      0.00000000	    -46.90246710	     -3.02758544	     -6.28126931	     89.65416164	     -4.60215585	     35.80268028	     25.56630539	     27.69215030	      0.00000000	      0.00000000	     89.75384028	     -3.96635555	     36.17088679	     31.80873816	     25.75421626	      0.00000000	      0.00000000
      0.03000000	    -23.10888666	      4.63019792	      3.58425353	      0.11507195	      1.06548796	     -0.25801507	      0.00000000	      0.50000000	      0.00000000	      0.25000000	     47.62526749	    -10.89371449	     -3.39478830	     48.39699336	      0.84468688	     16.08808361	     -4.65721536	      0.00000000	      0.00000000	     98.23326843	     -0.06609700	     -2.20017847	    103.54613245	      1.80722094	     22.71575705	     -8.87379121	      0.00000000	      0.00000000	    -46.90979040	     -3.06500447	     -6.28677474	     89.65159074	     -4.41951814	     35.50082511	     26.18801112	     23.90819824	      0.00000000	      0.00000000	     89.75479785	     -3.95274474	     34.65364196	     32.92226001	     21.20203161	      0.00000000	      0.00000000
      0.03500000	    -23.12117653	      4.65208624	      3.58533712	      0.11511370	      1.06547579	     -0.25806642	      0.00000000	      0.50000000	      0.00000000	      0.25000000	     47.64072671	    -10.92103175	     -3.38581982	     48.39678355	      0.84468322	     16.11021097	     -4.61045023	      0.00000000	      0.00000000	     98.23857185	     -0.06280986	     -2.22679290	    103.52616860	      1.80687250	     22.69381883	     -8.90734339	      0.00000000	      0.00000000	    -46.87769456	     -3.05574675	     -6.33426659	     89.65267481	     -4.34127687	     35.28233799	     25.56951223	     27.20023764	      0.00000000	      0.00000000	     89.75839622	     -4.16526237	     34.01454260	     32.50092078	     24.87162722	      0.00000000	      0.00000000
      0.04000000	    -23.10329006	      4.64817992	      3.58324747	      0.11514140	      1.06548794	     -0.25808835	      0.00000000	      0.50000000	      0.00000000	      0.25000000	     47.61817331	    -10.91512721	     -3.38406842	     48.38948725	      0.84455588	     16.09358352	     -4.63333288	      0.00000000	      0.00000000	     98.22260551	     -0.06789385	     -2.22754002	    103.51394601	      1.80665918	     22.67408767	     -8.92166797	      0.00000000	      0.00000000	    -46.89038514	     -3.05334409	     -6.33415545	     89.65513203	     -4.36426567	     35.67518253	     26.04323322	     24.26343587	      0.00000000	      0.00000000	     89.75843318	     -4.01674865	     32.87556242	     33.25788659	     21.33800113	      0.00000000	      0.00000000
      0.04500000	    -23.13774223	      4.62639028	      3.53857245	      0.11512232	      1.06537880	     -0.25826074	      0.00000000	      0.50000000	      0.00000000	      0.25000000	     47.66600168	    -10.88601957	     -3.37270205	     48.38566066	      0.84448909	     16.07646437	     -4.61205377	      0.00000000	      0.00000000	     98.27564088	     -0.09016454	     -2.20961507	    103.53939724	      1.80710339	     22.69136053	     -8.96012836	      0.00000000	      0.00000000	    -46.83352469	     -3.02332511	     -6.30533267	     89.65531917	     -4.24657961	     35.25808951	     25.57609806	     26.61517144	      0.00000000	      0.00000000	     89.75993013	     -4.20441001	     32.86016836	     32.86825971	     24.07594090	      0.00000000	      0.00000000
      0.05000000	    -23.15235346	      4.62381512	      3.55458458	      0.11509235	      1.06532577	     -0.25827457	      0.00000000	      0.50000000	      0.00000000	      0.25000000	     47.68820822	    -10.89658899	     -3.38151181	     48.40097425	      0.84475636	     16.09423389	     -4.60379011	      0.00000000	      0.00000000	     98.30229020	     -0.08244930	     -2.21053698	    103.54436630	      1.80719011	     22.70562354	     -8.93947417	      0.00000000	      0.00000000	    -46.81561966	     -3.01497730	     -6.29000996	     89.65118356	     -4.11140651	     34.36395593	     25.47740005	     27.38039460	      0.00000000	      0.00000000	     89.76109137	     -3.98721020	     32.02292055	     32.60784048	     25.10224378	      0.00000000	      0.00000000
